<?xml version="1.0" standalone="no"?>
<!DOCTYPE svg PUBLIC "-//W3C//DTD SVG 20010904//EN"
 "http://www.w3.org/TR/2001/REC-SVG-20010904/DTD/svg10.dtd">
<svg version="1.0" xmlns="http://www.w3.org/2000/svg"
 width="356.000000pt" height="108.000000pt" viewBox="0 0 356.000000 108.000000"
 preserveAspectRatio="xMidYMid meet">

<g transform="translate(0.000000,108.000000) scale(0.100000,-0.100000)"
fill="#000000" stroke="none">
<path d="M0 540 l0 -540 1780 0 1780 0 0 540 0 540 -1780 0 -1780 0 0 -540z
m650 413 c0 -5 -16 -60 -35 -123 -19 -63 -35 -118 -35 -122 0 -3 42 35 93 85
141 141 246 193 305 151 87 -61 95 -305 15 -444 -14 -25 -65 -84 -111 -132
-77 -79 -89 -88 -122 -88 -24 0 -49 9 -71 25 -19 14 -50 33 -70 42 l-36 17 46
69 45 69 51 -6 c27 -3 67 -9 88 -12 l37 -7 0 44 c0 74 -20 171 -46 228 l-25
55 -63 -95 c-121 -180 -219 -365 -267 -501 -12 -34 -18 -38 -119 -77 -110 -42
-130 -47 -130 -32 0 46 119 418 185 578 19 46 35 85 35 88 0 2 -40 -11 -89
-28 -49 -17 -92 -29 -95 -26 -3 3 2 28 11 56 14 43 22 54 52 66 297 124 351
142 351 120z m2320 0 c0 -5 -16 -60 -35 -123 -19 -63 -35 -118 -35 -122 0 -3
42 35 93 85 141 141 246 193 305 151 87 -61 95 -305 15 -444 -14 -25 -65 -84
-111 -132 -77 -79 -89 -88 -122 -88 -24 0 -49 9 -71 25 -19 14 -50 33 -70 42
l-36 17 46 69 45 69 51 -6 c27 -3 67 -9 88 -12 l37 -7 0 44 c0 74 -20 171 -46
228 l-25 55 -63 -95 c-121 -180 -219 -365 -267 -501 -12 -34 -18 -38 -119 -77
-110 -42 -130 -47 -130 -32 0 46 119 418 185 578 19 46 35 85 35 88 0 2 -40
-11 -89 -28 -49 -17 -92 -29 -95 -26 -3 3 2 28 11 56 14 43 22 54 52 66 297
124 351 142 351 120z m-1220 -135 l1 -133 24 28 c30 34 57 34 124 1 80 -40 90
-75 74 -273 l-6 -83 -61 -45 c-62 -46 -103 -70 -109 -62 -2 2 1 52 7 110 9 81
9 124 0 177 -14 85 -20 97 -40 81 -11 -9 -14 -41 -14 -139 l0 -128 -42 -6
c-24 -3 -65 -8 -93 -12 l-50 -6 2 169 c2 92 6 223 9 289 l6 122 66 20 c110 33
102 41 102 -110z m-379 -84 l96 -7 -15 -51 c-8 -28 -15 -52 -16 -53 -2 -2 -34
4 -72 12 -38 8 -82 15 -98 15 -28 0 -29 0 -11 -20 24 -26 76 -40 150 -40 85 0
105 -16 105 -84 0 -69 -29 -113 -95 -146 -43 -21 -64 -25 -145 -25 -72 0 -106
5 -138 19 -23 10 -42 21 -42 23 0 7 29 73 32 73 2 0 25 -7 52 -15 56 -17 144
-20 166 -5 26 17 -8 30 -85 30 -78 0 -146 25 -164 58 -6 12 -11 41 -11 65 0
51 21 83 83 128 44 32 53 33 208 23z m1049 -10 c0 -3 -4 -13 -10 -23 -7 -14
-4 -21 14 -30 29 -16 56 -71 56 -114 0 -86 -46 -159 -125 -197 -25 -12 -47
-26 -51 -31 -18 -29 -153 6 -211 56 -92 79 -77 185 42 293 l57 52 114 0 c63 0
114 -3 114 -6z"/>
<path d="M2210 600 c-15 -54 1 -111 41 -144 53 -45 62 -37 57 55 -3 74 -6 83
-31 105 -40 34 -55 30 -67 -16z"/>
</g>
</svg>
